<svg width="50" height="50" viewBox="0 0 50 50" fill="none" xmlns="http://www.w3.org/2000/svg">
<g clip-path="url(#clip0_6_116)">
<path d="M35.4167 4.16667H14.5833C8.83036 4.16667 4.16666 8.83037 4.16666 14.5833V35.4167C4.16666 41.1696 8.83036 45.8333 14.5833 45.8333H35.4167C41.1696 45.8333 45.8333 41.1696 45.8333 35.4167V14.5833C45.8333 8.83037 41.1696 4.16667 35.4167 4.16667Z" stroke="#111111" stroke-width="4" stroke-linecap="round" stroke-linejoin="round"/>
<path d="M33.3333 23.6875C33.5904 25.4213 33.2943 27.1921 32.487 28.7479C31.6797 30.3038 30.4024 31.5654 28.8367 32.3535C27.2711 33.1415 25.4968 33.4158 23.7662 33.1373C22.0357 32.8589 20.437 32.0418 19.1976 30.8024C17.9582 29.563 17.1411 27.9643 16.8626 26.2338C16.5842 24.5032 16.8585 22.7289 17.6465 21.1633C18.4346 19.5976 19.6962 18.3203 21.2521 17.513C22.8079 16.7057 24.5787 16.4095 26.3125 16.6667C28.0811 16.9289 29.7184 17.753 30.9827 19.0173C32.247 20.2815 33.0711 21.9189 33.3333 23.6875Z" stroke="#111111" stroke-width="4" stroke-linecap="round" stroke-linejoin="round"/>
</g>
<defs>
<clipPath id="clip0_6_116">
<rect width="50" height="50" fill="white"/>
</clipPath>
</defs>
</svg>
