<?xml version="1.0" encoding="UTF-8" standalone="no"?>
<svg
   xmlns:dc="http://purl.org/dc/elements/1.1/"
   xmlns:cc="http://creativecommons.org/ns#"
   xmlns:rdf="http://www.w3.org/1999/02/22-rdf-syntax-ns#"
   xmlns:svg="http://www.w3.org/2000/svg"
   xmlns="http://www.w3.org/2000/svg"
   xmlns:sodipodi="http://sodipodi.sourceforge.net/DTD/sodipodi-0.dtd"
   xmlns:inkscape="http://www.inkscape.org/namespaces/inkscape"
   inkscape:version="1.0 (4035a4fb49, 2020-05-01)"
   sodipodi:docname="turtle.svg"
   viewBox="0 0 614 625"
   height="625"
   width="614"
   id="svg833"
   version="1.1"
   inkscape:export-filename="C:\Users\alifi\Pictures\flying tortoise.png"
   inkscape:export-xdpi="96"
   inkscape:export-ydpi="96">
  <metadata
     id="metadata839">
    <rdf:RDF>
      <cc:Work
         rdf:about="">
        <dc:format>image/svg+xml</dc:format>
        <dc:type
           rdf:resource="http://purl.org/dc/dcmitype/StillImage" />
        <dc:title />
      </cc:Work>
    </rdf:RDF>
  </metadata>
  <defs
     id="defs837">
    <inkscape:path-effect
       effect="bspline"
       id="path-effect983"
       is_visible="true"
       lpeversion="1"
       weight="33.333333"
       steps="2"
       helper_size="0"
       apply_no_weight="true"
       apply_with_weight="true"
       only_selected="false" />
    <inkscape:path-effect
       only_selected="false"
       apply_with_weight="true"
       apply_no_weight="true"
       helper_size="0"
       steps="2"
       weight="33.333333"
       lpeversion="1"
       is_visible="true"
       id="path-effect936"
       effect="bspline" />
    <inkscape:path-effect
       only_selected="false"
       apply_with_weight="true"
       apply_no_weight="true"
       helper_size="0"
       steps="2"
       weight="33.333333"
       lpeversion="1"
       is_visible="true"
       id="path-effect932"
       effect="bspline" />
    <inkscape:path-effect
       only_selected="false"
       apply_with_weight="true"
       apply_no_weight="true"
       helper_size="0"
       steps="2"
       weight="33.333333"
       lpeversion="1"
       is_visible="true"
       id="path-effect928"
       effect="bspline" />
    <inkscape:path-effect
       only_selected="false"
       apply_with_weight="true"
       apply_no_weight="true"
       helper_size="0"
       steps="2"
       weight="33.333333"
       lpeversion="1"
       is_visible="true"
       id="path-effect924"
       effect="bspline" />
    <inkscape:path-effect
       only_selected="false"
       apply_with_weight="true"
       apply_no_weight="true"
       helper_size="0"
       steps="2"
       weight="33.333333"
       lpeversion="1"
       is_visible="true"
       id="path-effect920"
       effect="bspline" />
    <inkscape:path-effect
       only_selected="false"
       apply_with_weight="true"
       apply_no_weight="true"
       helper_size="0"
       steps="2"
       weight="33.333333"
       lpeversion="1"
       is_visible="true"
       id="path-effect916"
       effect="bspline" />
    <inkscape:path-effect
       only_selected="false"
       apply_with_weight="true"
       apply_no_weight="true"
       helper_size="0"
       steps="2"
       weight="33.333333"
       lpeversion="1"
       is_visible="true"
       id="path-effect912"
       effect="bspline" />
    <inkscape:path-effect
       only_selected="false"
       apply_with_weight="true"
       apply_no_weight="true"
       helper_size="0"
       steps="2"
       weight="33.333333"
       lpeversion="1"
       is_visible="true"
       id="path-effect908"
       effect="bspline" />
    <inkscape:path-effect
       only_selected="false"
       apply_with_weight="true"
       apply_no_weight="true"
       helper_size="0"
       steps="2"
       weight="33.333333"
       lpeversion="1"
       is_visible="true"
       id="path-effect904"
       effect="bspline" />
    <inkscape:path-effect
       only_selected="false"
       apply_with_weight="true"
       apply_no_weight="true"
       helper_size="0"
       steps="2"
       weight="33.333333"
       lpeversion="1"
       is_visible="true"
       id="path-effect900"
       effect="bspline" />
    <inkscape:path-effect
       only_selected="false"
       apply_with_weight="true"
       apply_no_weight="true"
       helper_size="0"
       steps="2"
       weight="33.333333"
       lpeversion="1"
       is_visible="true"
       id="path-effect896"
       effect="bspline" />
    <inkscape:path-effect
       only_selected="false"
       apply_with_weight="true"
       apply_no_weight="true"
       helper_size="0"
       steps="2"
       weight="33.333333"
       lpeversion="1"
       is_visible="true"
       id="path-effect892"
       effect="bspline" />
    <inkscape:path-effect
       only_selected="false"
       apply_with_weight="true"
       apply_no_weight="true"
       helper_size="0"
       steps="2"
       weight="33.333333"
       lpeversion="1"
       is_visible="true"
       id="path-effect887"
       effect="bspline" />
    <inkscape:path-effect
       only_selected="false"
       apply_with_weight="true"
       apply_no_weight="true"
       helper_size="0"
       steps="2"
       weight="33.333333"
       lpeversion="1"
       is_visible="true"
       id="path-effect880"
       effect="bspline" />
    <inkscape:path-effect
       only_selected="false"
       apply_with_weight="true"
       apply_no_weight="true"
       helper_size="0"
       steps="2"
       weight="33.333333"
       lpeversion="1"
       is_visible="true"
       id="path-effect876"
       effect="bspline" />
    <inkscape:path-effect
       only_selected="false"
       apply_with_weight="true"
       apply_no_weight="true"
       helper_size="0"
       steps="2"
       weight="33.333333"
       lpeversion="1"
       is_visible="true"
       id="path-effect872"
       effect="bspline" />
    <inkscape:path-effect
       only_selected="false"
       apply_with_weight="true"
       apply_no_weight="true"
       helper_size="0"
       steps="2"
       weight="33.333333"
       lpeversion="1"
       is_visible="true"
       id="path-effect868"
       effect="bspline" />
    <inkscape:path-effect
       only_selected="false"
       apply_with_weight="true"
       apply_no_weight="true"
       helper_size="0"
       steps="2"
       weight="33.333333"
       lpeversion="1"
       is_visible="true"
       id="path-effect864"
       effect="bspline" />
    <inkscape:path-effect
       only_selected="false"
       apply_with_weight="true"
       apply_no_weight="true"
       helper_size="0"
       steps="2"
       weight="33.333333"
       lpeversion="1"
       is_visible="true"
       id="path-effect860"
       effect="bspline" />
    <inkscape:path-effect
       only_selected="false"
       apply_with_weight="true"
       apply_no_weight="true"
       helper_size="0"
       steps="2"
       weight="33.333333"
       lpeversion="1"
       is_visible="true"
       id="path-effect856"
       effect="bspline" />
    <inkscape:path-effect
       only_selected="false"
       apply_with_weight="true"
       apply_no_weight="true"
       helper_size="0"
       steps="2"
       weight="33.333333"
       lpeversion="1"
       is_visible="true"
       id="path-effect852"
       effect="bspline" />
    <inkscape:path-effect
       only_selected="false"
       apply_with_weight="true"
       apply_no_weight="true"
       helper_size="0"
       steps="2"
       weight="33.333333"
       lpeversion="1"
       is_visible="true"
       id="path-effect848"
       effect="bspline" />
  </defs>
  <sodipodi:namedview
     inkscape:current-layer="layer1"
     inkscape:window-maximized="1"
     inkscape:window-y="-8"
     inkscape:window-x="-8"
     inkscape:cy="407.81298"
     inkscape:cx="215.03535"
     inkscape:zoom="0.82400002"
     showgrid="false"
     id="namedview835"
     inkscape:window-height="705"
     inkscape:window-width="1366"
     inkscape:pageshadow="2"
     inkscape:pageopacity="0"
     guidetolerance="10"
     gridtolerance="10"
     objecttolerance="10"
     borderopacity="1"
     bordercolor="#666666"
     pagecolor="#ffffff"
     inkscape:document-rotation="0" />
  <g
     style="display:inline"
     inkscape:label="gbr"
     id="layer1"
     inkscape:groupmode="layer">
    <path
       inkscape:original-d="m 157.76699,361.34709 c 0,0 -7.28055,-27.30483 -10.92233,-40.95874 -4.55006,-3.74098 -9.10094,-7.48282 -13.65291,-11.22573 -5.25801,-2.3251 -10.5168,-4.6511 -15.7767,-6.97815 -5.35914,-0.20127 -10.71907,-0.40353 -16.0801,-0.6068 -6.067081,1.01235 -12.134921,2.02365 -18.203882,3.03398 -5.763678,3.23731 -11.528126,6.27123 -17.293689,9.40534 -6.168218,4.55206 -18.507282,13.65291 -18.507282,13.65291 0,0 20.934466,24.87864 20.934466,24.87864 0,0 -51.274272,16.3835 -51.274272,16.3835 0,0 7.080288,13.55278 10.618932,20.32767 3.844119,2.73164 7.687084,5.46216 11.529127,8.19175 10.721279,3.94525 21.441129,7.88935 32.160194,11.83252 9.103124,1.31575 18.204883,2.63045 27.305825,3.94418 6.574761,-0.10014 13.148251,-0.20127 19.720871,-0.3034 5.46228,-1.51602 10.92333,-3.03298 16.3835,-4.55097 7.48497,-2.72964 22.45145,-8.19175 22.45145,-8.19175 0,0 3.03498,-2.22392 4.55098,-3.33738 2.32709,-9.9102 4.6531,-19.82101 6.97815,-29.73301 -3.63985,-1.92056 -10.92233,-5.76456 -10.92233,-5.76456 z"
       inkscape:path-effect="#path-effect848"
       id="path846"
       d="m 157.76699,361.34709 c -3.64078,-13.65291 -7.28124,-27.30465 -11.37677,-36.00224 -4.09553,-8.69759 -8.64641,-12.43943 -13.55134,-15.47361 -4.90493,-3.03419 -10.16372,-5.36019 -15.47333,-6.62459 -5.3096,-1.26441 -10.66953,-1.46667 -16.3837,-1.06222 -5.714171,0.40445 -11.78201,1.41576 -17.719783,3.50052 -5.937772,2.08477 -11.659774,5.19674 -17.626755,9.03986 -5.96698,3.84312 -12.136121,8.39412 -18.305215,12.94509 0,0 20.934466,24.87864 20.934466,24.87864 0,0 -51.274272,16.3835 -51.274272,16.3835 3.539644,6.77589 7.079913,13.55298 10.771551,18.30605 3.691638,4.75307 7.534599,7.48359 14.816295,10.82083 7.281696,3.33724 18.001548,7.28133 27.9126,9.91065 9.911052,2.62932 19.012811,3.94403 26.850594,4.55073 7.837779,0.60671 14.411269,0.50558 20.428569,-0.30358 6.01729,-0.80917 11.47834,-2.32613 17.95086,-4.44995 6.47251,-2.12382 13.95561,-4.85415 21.43943,-7.58473 1.51699,-1.11246 3.03416,-2.22504 4.95553,-7.73645 1.92138,-5.5114 4.24738,-15.42221 3.59066,-21.33854 -0.65672,-5.91633 -4.29861,-7.83844 -7.93939,-9.75996 z"
       style="fill:#5ebd5e;fill-opacity:1;stroke:none;stroke-width:1px;stroke-linecap:butt;stroke-linejoin:miter;stroke-opacity:1" />
    <path
       inkscape:original-d="m 162.92476,409.89078 c 0,0 -5.2579,15.37317 -7.88835,23.05825 -3.94326,11.02468 -7.88735,22.04793 -11.83253,33.07039 -1.61715,5.36114 -3.23524,10.72106 -4.85437,16.0801 1.72029,3.54071 3.43952,7.08028 5.15777,10.61893 2.83277,0.60781 5.66443,1.21459 8.49515,1.82039 3.84412,0.40553 7.68708,0.81006 11.52912,1.21359 2.42824,-0.90921 4.85537,-1.81939 7.28156,-2.73058 2.73164,-0.70694 5.4621,-1.41484 8.19174,-2.12379 2.63051,-1.01035 5.25985,-2.02163 7.88836,-3.03398 0.91121,-22.24864 2.73058,-66.74757 2.73058,-66.74757 z"
       inkscape:path-effect="#path-effect852"
       id="path850"
       d="m 162.92476,409.89078 c -2.62945,7.68608 -5.2591,15.37276 -8.54596,24.72763 -3.28685,9.35487 -7.23095,20.37812 -10.01211,28.56995 -2.78116,8.19184 -4.39925,13.55176 -4.34828,18.00192 0.051,4.45015 1.7702,7.98973 4.046,10.06248 2.2758,2.07275 5.10746,2.67953 8.44485,3.18513 3.33738,0.5056 7.18034,0.91013 10.31521,0.65712 3.13487,-0.253 5.562,-1.16317 8.14099,-1.97223 2.57898,-0.80906 5.30944,-1.51695 7.98944,-2.37661 2.68,-0.85966 5.30934,-1.87095 7.07891,-13.50086 1.76957,-11.62991 2.67979,-33.87961 3.58998,-56.1288 0,0 -26.69903,-11.22573 -26.69903,-11.22573 z"
       style="fill:#54a954;fill-opacity:1;stroke:none;stroke-width:1px;stroke-linecap:butt;stroke-linejoin:miter;stroke-opacity:1"
       sodipodi:nodetypes="cccccccccccc" />
    <path
       inkscape:original-d="m 178.70146,417.77913 c 0,0 -3.03298,5.86669 -4.55097,8.79854 -0.30241,3.94525 -0.6058,7.88935 -0.9102,11.83252 -0.10013,5.46228 -0.20126,10.92333 -0.3034,16.3835 0.10214,4.9566 0.20327,9.912 0.3034,14.8665 0.60781,4.6532 1.21459,9.30521 1.82039,13.95632 1.51802,2.02369 3.03498,4.0463 4.55097,6.06796 3.23731,2.22596 6.47349,4.45083 9.70874,6.67475 6.57475,4.24866 13.14825,8.29388 19.72087,12.43932 5.66455,1.41689 11.32786,2.83272 16.99029,4.24758 5.26001,0.3044 10.5188,0.60779 15.7767,0.91019 4.14753,0.10214 8.29388,0.20327 12.43932,0.3034 4.6532,-0.80808 9.30521,-1.61712 13.95631,-2.42719 4.45093,-1.11148 8.90068,-2.22391 13.34952,-3.33737 1.21461,-2.42624 2.42818,-4.85337 3.64078,-7.28156 0.91121,-4.75233 1.82138,-9.50547 2.73058,-14.25971 0.40554,-3.13417 0.81006,-6.26922 1.21359,-9.40534 -0.3024,-3.03304 -0.6058,-6.06696 -0.91019,-9.10194 -0.50468,-5.05573 -1.01033,-10.11227 -1.51699,-15.1699 -1.71829,-6.37049 -3.43752,-12.74172 -5.15777,-19.11408 -1.11148,-2.83077 -3.33738,-8.49514 -3.33738,-8.49514 0,0 -99.51456,-7.88835 -99.51456,-7.88835 z"
       inkscape:path-effect="#path-effect860"
       id="path858"
       d="m 178.70146,417.77913 c -1.51699,2.93285 -3.03418,5.86607 -3.94431,9.30489 -0.91014,3.43882 -1.21353,7.38292 -1.41577,12.08567 -0.20224,4.70276 -0.30337,10.16381 -0.30335,15.37222 2e-5,5.2084 0.10115,10.1638 0.45518,14.9677 0.35403,4.80389 0.96082,9.4559 2.02307,12.79331 1.06226,3.3374 2.57922,5.36001 4.95602,7.48366 2.37681,2.12364 5.61299,4.34851 10.54082,7.5486 4.92782,3.20008 11.45569,7.31766 17.57428,10.0986 6.11859,2.78094 11.7819,4.19677 17.24306,5.05629 5.46115,0.85951 10.71994,1.1629 15.42264,1.36515 4.7027,0.20225 8.84905,0.30338 13.24826,-0.0507 4.39921,-0.35406 9.05122,-1.16311 13.60219,-2.1239 4.55097,-0.96079 9.00072,-2.07322 11.83199,-3.84278 2.83128,-1.76956 4.04484,-4.19669 5.10677,-7.78676 1.06193,-3.59007 1.97211,-8.34321 2.62949,-12.28738 0.65739,-3.94416 1.06191,-7.07921 1.11258,-10.16368 0.0507,-3.08446 -0.25271,-6.11838 -0.65725,-10.16374 -0.40453,-4.04535 -0.91019,-9.10189 -2.02256,-14.8159 -1.11237,-5.71402 -2.83159,-12.08525 -4.24739,-16.6868 -1.41579,-4.60155 -2.5287,-7.43442 -3.64116,-10.26613 0,0 -99.51456,-7.88835 -99.51456,-7.88835 z"
       style="fill:#5ebd5e;fill-opacity:1;stroke:none;stroke-width:1px;stroke-linecap:butt;stroke-linejoin:miter;stroke-opacity:1" />
    <path
       inkscape:original-d="m 364.92374,418.55744 c 0,0 -2.57342,10.29867 -3.86163,15.44651 -1.35775,5.72204 -2.71644,11.44286 -4.07616,17.16279 0.0725,4.00573 0.14402,8.0103 0.21453,12.01395 1.43126,2.43244 2.86147,4.86379 4.2907,7.29418 2.86152,1.21672 5.72193,2.4324 8.58139,3.64709 2.50396,0.14403 5.00682,0.28705 7.50872,0.42907 4.29178,-0.0705 8.58239,-0.14202 12.87209,-0.21453 3.14757,-0.0705 6.29402,-0.14203 9.43953,-0.21454 0.93067,-1.21472 1.86031,-2.43039 2.78896,-3.64709 -2.28838,-19.7372 -6.65058,-59.21161 -6.65058,-59.21161 0,0 -31.10755,7.29418 -31.10755,7.29418 z"
       inkscape:path-effect="#path-effect864"
       id="path862"
       d="m 364.92374,418.55744 c -1.28721,5.14884 -2.5746,10.29838 -3.89757,15.73332 -1.32298,5.43495 -2.68167,11.15577 -3.32518,16.01875 -0.64351,4.86298 -0.572,8.86755 0.17922,12.08567 0.75122,3.21813 2.18143,5.64948 4.32706,7.4727 2.14564,1.82322 5.00605,3.0389 7.68768,3.71803 2.68163,0.67914 5.18449,0.82216 8.5813,0.85787 3.3968,0.0357 7.68741,-0.0358 11.40604,-0.1073 3.71864,-0.0715 6.86509,-0.14303 8.90263,-0.78656 2.03755,-0.64353 2.96718,-1.8592 2.32319,-12.33969 -0.64399,-10.48049 -2.85996,-30.20977 -5.07682,-49.94697 0,0 -31.10755,7.29418 -31.10755,7.29418 z"
       style="fill:#54a954;fill-opacity:1;stroke:none;stroke-width:1px;stroke-linecap:butt;stroke-linejoin:miter;stroke-opacity:1" />
    <path
       inkscape:original-d="m 391.09699,413.19407 c 0,0 1.43123,24.74402 2.14534,37.11453 1.0737,8.51105 2.14635,17.02076 3.21803,25.52964 1.57428,4.29178 3.14751,8.58239 4.71976,12.87209 2.93304,0.14403 5.86495,0.28705 8.79593,0.42907 3.64816,-1.00018 7.29518,-2.00132 10.94128,-3.00349 4.64934,-0.28505 9.29751,-0.57109 13.94476,-0.85814 4.29178,-0.49959 8.58239,-1.00016 12.87209,-1.50174 3.57665,0.50159 7.15216,1.00216 10.72674,1.50174 4.22027,0.43008 8.43937,0.85914 12.65755,1.28721 4.14876,0.001 8.29635,0.001 12.44302,0 2.93304,-1.50077 5.86496,-3.00249 8.79593,-4.50523 1.93185,-3.57465 3.86263,-7.15016 5.79244,-10.72674 0.78765,-3.78919 1.57426,-7.57923 2.35989,-11.37035 10e-4,-3.00254 10e-4,-6.00597 0,-9.01046 -0.85716,-3.78919 -1.71528,-7.57923 -2.57442,-11.37034 -1.28624,-5.14794 -2.57342,-10.29668 -3.86163,-15.44651 -1.92985,-5.79156 -3.86063,-11.58388 -5.79244,-17.37732 -1.6438,-4.28978 -3.28853,-8.5804 -4.9343,-12.87209 -1.71531,-3.57465 -3.43156,-7.15016 -5.14884,-10.72674 -1.78682,-1.14321 -5.36337,-3.43256 -5.36337,-3.43256 0,0 -81.73776,33.46743 -81.73776,33.46743 z"
       inkscape:path-effect="#path-effect868"
       id="path866"
       d="m 391.09699,413.19407 c 0.71511,12.37151 1.43029,24.74407 2.32423,35.18488 0.89395,10.44081 1.9666,18.95052 3.28973,25.3509 1.32314,6.40037 2.89636,10.69099 5.14931,12.90727 2.25295,2.21629 5.18486,2.35931 8.47424,1.93011 3.28938,-0.4292 6.9364,-1.43034 11.08425,-2.07388 4.14785,-0.64355 8.79602,-0.92959 13.26551,-1.32293 4.46948,-0.39334 8.76009,-0.89391 12.69339,-0.89378 3.9333,1.4e-4 7.50881,0.50071 11.40622,0.96551 3.89741,0.46481 8.11651,0.89387 12.29994,1.10835 4.18342,0.21448 8.33101,0.21448 11.87056,-0.53651 3.53954,-0.75098 6.47147,-2.2527 8.90259,-4.79112 2.43112,-2.53841 4.3619,-6.11393 5.72064,-9.79661 1.35875,-3.68268 2.14536,-7.47272 2.53876,-10.86943 0.39339,-3.39671 0.39339,-6.40014 -0.0356,-9.7969 -0.42894,-3.39675 -1.28707,-7.18679 -2.35974,-11.65631 -1.07267,-4.46952 -2.35986,-9.61826 -3.96884,-15.08895 -1.60897,-5.47068 -3.53975,-11.263 -5.32752,-16.30461 -1.78778,-5.0416 -3.43251,-9.33222 -5.11299,-13.26539 -1.68049,-3.93318 -3.39673,-7.50869 -5.14849,-9.86881 -1.75176,-2.36012 -3.54068,-3.50503 -5.32847,-4.64922 0,0 -81.73776,33.46743 -81.73776,33.46743 z"
       style="fill:#5ebd5e;fill-opacity:1;stroke:none;stroke-width:1px;stroke-linecap:butt;stroke-linejoin:miter;stroke-opacity:1" />
    <path
       inkscape:original-d="m 102.09345,330.70388 c -1.56656,1.01233 -3.134117,2.02366 -4.702673,3.03398 -0.504674,1.872 -1.010327,3.74291 -1.51699,5.61287 0.102134,0.81008 0.203265,1.61912 0.303398,2.42718 0.810077,-0.0496 1.51799,-0.10013 2.275485,-0.1517 0.658376,-0.35297 1.315725,-0.70692 1.97209,-1.06189 0.4561,-0.75751 0.91119,-1.51599 1.36529,-2.27548 0.40554,-0.85865 0.81006,-1.71826 1.21359,-2.57889 0.0516,-0.90921 0.10213,-1.81939 0.1517,-2.73058 -0.35297,-0.75751 -0.70693,-1.51599 -1.06189,-2.27549 z"
       inkscape:path-effect="#path-effect872"
       id="path870"
       d="m 101.48706,331.58931 c -0.96092,0.12574 -2.528479,1.13706 -3.56531,2.57865 -1.036832,1.44158 -1.542483,3.31249 -1.744586,4.65272 -0.202103,1.34024 -0.100973,2.14928 0.354416,2.52626 0.45539,0.37698 1.163524,0.32977 1.871174,0.12744 0.70765,-0.20233 1.364996,-0.55629 1.920966,-1.11228 0.55597,-0.55599 1.01106,-1.31447 1.44086,-2.12348 0.42981,-0.809 0.83433,-1.66861 1.06195,-2.55327 0.22763,-0.88467 0.27819,-1.79485 0.1268,-2.62907 -0.1514,-0.83422 -0.50535,-1.5927 -1.46627,-1.46697 z"
       style="fill:#112311;fill-opacity:1;stroke:none;stroke-width:1px;stroke-linecap:butt;stroke-linejoin:miter;stroke-opacity:1" />
    <path
       inkscape:path-effect="#path-effect876"
       inkscape:original-d="m 199.93932,283.67718 c 0,0 -2.22392,-15.1689 -3.33738,-22.75485 2.22597,-11.22495 4.45084,-22.45046 6.67476,-33.67718 4.04639,-12.53971 8.09161,-24.87764 12.13592,-37.31797 4.55206,-10.61814 9.10294,-21.23686 13.65291,-31.85679 5.56341,-10.01134 11.1256,-20.02327 16.6869,-30.03641 7.08043,-8.69658 14.15957,-17.39382 21.23786,-26.09223 6.87816,-7.88751 13.75505,-15.775701 20.63107,-23.665051 11.32809,-7.887507 22.65472,-15.775699 33.98058,-23.665048 10.31674,-6.067083 20.63207,-12.134923 30.9466,-18.203884 9.3054,-5.662544 18.60942,-11.325861 27.91263,-16.990291 12.5417,-4.651197 25.0819,-9.303207 37.62135,-13.9563109 C 424.45501,3.6417403 437.1966,0 437.1966,0 c 0,0 -8.69641,8.2938803 -13.04611,12.43932 -4.55007,3.742985 -9.10095,7.484819 -13.65292,11.225729 -4.55006,4.754331 -9.10094,9.507472 -13.65291,14.259708 -3.43758,3.742985 -6.87602,7.484819 -10.31553,11.225728 -2.72964,2.832772 -8.19175,8.495146 -8.19175,8.495146 0,0 12.13692,-7.482819 18.20388,-11.225728 6.17022,-2.628502 12.33919,-5.2579 18.50728,-7.88835 5.76568,-2.223963 11.53013,-4.448838 17.29369,-6.674757 5.05774,-1.313751 10.11427,-2.62845 15.16991,-3.944175 4.85546,-0.706943 14.5631,-2.123786 14.5631,-2.123786 0,0 -8.89867,9.912003 -13.34951,14.866505 -3.43758,3.43958 -6.87602,6.878023 -10.31554,10.315534 -5.86481,3.742984 -17.59708,11.225728 -17.59708,11.225728 0,0 12.13692,-6.269227 18.20388,-9.40534 4.24866,-1.414886 8.49615,-2.830715 12.74272,-4.247573 1.31575,-0.100134 3.94417,-0.303398 3.94417,-0.303398 0,0 -4.44883,5.2599 -6.67475,7.88835 -3.94326,2.731637 -7.88735,5.462165 -11.83253,8.191747 -7.48297,4.754332 -14.96664,9.507473 -22.45145,14.259709 -7.88751,3.43958 -23.66505,10.315534 -23.66505,10.315534 0,0 -148.22668,168.117089 -148.22668,168.117089 0,0 -42.9141,26.66446 -42.9141,26.66446 z"
       id="path874"
       d="m 199.93932,283.67718 c -1.11246,-7.58495 -2.22476,-15.16878 -1.66866,-24.5744 0.55609,-9.40563 2.78097,-20.63114 5.93097,-32.5096 3.15,-11.87846 7.16548,-24.22606 11.46366,-35.75536 4.29818,-11.5293 8.84906,-22.14802 13.90576,-32.46372 5.0567,-10.31571 10.61889,-20.32764 16.9398,-29.68262 6.32092,-9.35497 13.40006,-18.05221 20.3783,-26.34519 6.97824,-8.292976 13.85512,-16.18117 22.95731,-24.069706 9.10219,-7.888536 20.42882,-15.776726 31.25018,-22.754961 10.82135,-6.978235 21.13668,-13.046076 30.94663,-18.911826 9.80995,-5.865749 19.11398,-11.529065 30.03656,-16.686894 10.92259,-5.157829 23.46279,-9.809839 32.91882,-13.0460957 C 424.45467,3.640551 430.82524,1.8203884 437.1966,0 c -4.3487,4.14644 -8.69738,8.2928586 -13.14723,12.237039 -4.44984,3.944181 -9.00072,7.686015 -13.5518,11.933689 -4.55108,4.247674 -9.10196,9.000815 -13.09675,13.248437 -3.99478,4.247621 -7.43322,7.989455 -10.51778,11.276283 -3.08457,3.286829 -5.81508,6.118468 -8.54566,8.950183 6.06796,-3.741909 12.1362,-7.48399 18.25489,-10.669714 6.11869,-3.185725 12.28767,-5.815122 18.25457,-8.242328 5.96691,-2.427206 11.73136,-4.652081 17.14209,-6.421903 5.41073,-1.769822 10.46726,-3.084519 15.42288,-4.095824 4.95563,-1.011305 9.80906,-1.719098 14.66343,-2.427027 -4.44984,4.955502 -8.89972,9.911058 -12.84391,14.108071 -3.94418,4.197013 -7.38262,7.635453 -12.03466,11.225621 -4.65203,3.590167 -10.51787,7.332166 -16.38356,11.074075 6.06796,-3.135113 12.1363,-6.270424 17.29422,-8.545925 5.15792,-2.275501 9.40541,-3.691331 12.18673,-4.449762 2.78132,-0.758431 4.0951,-0.859491 5.40982,-0.960624 -2.22492,2.62945 -4.44991,5.258988 -7.53435,7.938917 -3.08445,2.679928 -7.02854,5.410452 -12.74259,9.1524 -5.71405,3.741948 -13.19772,8.495091 -20.88377,12.590977 -7.68606,4.095886 -15.57472,7.534535 -23.46307,10.973046 0,0 -148.22668,168.117089 -148.22668,168.117089 0,0 -42.9141,26.66446 -42.9141,26.66446 z"
       style="fill:#d8d8d8;fill-opacity:1;stroke:none;stroke-width:1px;stroke-linecap:butt;stroke-linejoin:miter;stroke-opacity:1" />
    <path
       inkscape:original-d="m 157.76699,361.34709 c -1.61712,3.94517 -3.23525,7.88935 -4.85437,11.83252 -0.3024,4.55206 -0.60579,9.10294 -0.91019,13.65291 1.01234,3.23732 2.02365,6.4735 3.03398,9.70874 2.6305,4.45093 5.2599,8.90068 7.88835,13.34952 2.32999,1.31666 4.65888,2.77529 6.98682,4.16143 2.43244,1.50278 4.86379,3.00449 7.29419,4.50523 2.07487,0.71613 4.14867,1.43124 6.22151,2.14535 3.93421,0.93067 7.86727,1.8603 11.79941,2.78895 8.51105,1.21673 17.02076,2.4324 25.52964,3.6471 9.65526,0.71613 19.30914,1.43123 28.96221,2.14534 14.87571,-0.49959 29.74982,-1.00016 44.62324,-1.50174 6.43717,-0.14203 12.87309,-0.28505 19.30813,-0.42907 10.72796,-1.28623 21.45449,-2.57342 32.18023,-3.86163 13.01637,-1.85834 26.03122,-3.7176 39.04534,-5.5779 10.58492,-2.85952 21.16843,-5.71993 31.75115,-8.58139 11.58611,-4.28979 23.17076,-8.5804 34.75464,-12.87209 6.5802,-3.43163 13.15914,-6.86412 19.7372,-10.29768 3.71968,-4.4328 7.43821,-8.58039 11.15582,-12.87209 1.43126,-3.00254 2.86146,-6.00597 4.29069,-9.01046 0.001,-5.72004 0.001,-11.44086 0,-17.16278 -0.85715,-4.71886 -1.42923,-9.43854 -2.14535,-14.1593 -1.85834,-6.0061 -3.7176,-12.01295 -5.5779,-18.02093 -4.43281,-6.29214 -8.86644,-12.58504 -13.30116,-18.87906 -4.71886,-5.14794 -9.43853,-10.29667 -14.1593,-15.44651 -3.2103,-2.71909 -6.42146,-5.43906 -9.6337,-8.16009 -3.13417,-4.85347 -6.26922,-9.70774 -9.40534,-14.56311 -3.13417,-3.94325 -6.26922,-7.88735 -9.40534,-11.83252 -6.16821,-4.04439 -12.33718,-8.08962 -18.50728,-12.13593 -8.29204,-4.34779 -16.58476,-8.69641 -24.87864,-13.04611 -9.40453,-0.60581 -18.80968,-1.2126 -28.21602,-1.82039 -8.49431,0.60781 -16.98929,1.21459 -25.48544,1.82039 -16.98963,4.45092 -33.97958,9.3052 -50.97087,13.95631 -13.14651,5.46227 -26.2935,10.92333 -39.44175,16.38349 -9.30339,7.08043 -18.60741,14.15958 -27.91262,21.23787 -5.66254,5.26 -11.32586,10.5188 -16.99029,15.7767 -5.35914,8.90085 -10.71906,17.80035 -16.0801,26.69902 -3.43758,12.13717 -6.87602,24.27285 -10.31553,36.40777 -0.3024,2.0237 -0.6058,4.04631 -0.91019,6.06796 -1.81943,1.31575 -3.63978,2.63045 -5.46117,3.94418 z"
       inkscape:path-effect="#path-effect856"
       id="path854"
       d="m 157.86811,362.662 c -1.71945,2.62976 -3.33758,6.57395 -4.29827,10.82177 -0.96068,4.24783 -1.26408,8.79871 -0.90988,12.69249 0.35419,3.89377 1.3655,7.12995 3.18607,10.97303 1.82058,3.84308 4.44998,8.29283 6.91372,11.20173 2.46374,2.90891 4.82407,4.31475 7.20426,5.75922 2.38019,1.44447 4.81153,2.94618 7.06418,4.05446 2.25265,1.10828 4.32645,1.82339 7.32996,2.64571 3.00351,0.82232 6.93657,1.75196 13.15814,2.82459 6.22157,1.07262 14.73128,2.2883 23.81332,3.25367 9.08205,0.96538 18.73593,1.68048 31.00027,1.78768 12.26434,0.10721 27.13845,-0.39336 37.79375,-0.71516 10.6553,-0.3218 17.09122,-0.46482 25.67266,-1.17999 8.58145,-0.71517 19.30798,-2.00235 31.17902,-3.57564 11.87104,-1.57328 24.88589,-3.43254 36.68533,-5.79248 11.79944,-2.35994 22.38295,-5.22035 33.4673,-8.79598 11.08436,-3.57564 22.66901,-7.86625 31.75096,-11.72791 9.08195,-3.86166 15.66088,-7.29415 20.84493,-11.19652 5.18404,-3.90237 8.83178,-8.1113 11.40615,-11.75825 2.57436,-3.64694 4.00457,-6.65037 4.71978,-11.01235 0.71522,-4.36198 0.71522,-10.0828 0.35614,-15.31372 -0.35909,-5.23092 -1.07098,-9.92941 -2.35811,-15.29281 -1.28713,-5.3634 -3.14639,-11.37025 -6.29273,-17.52033 -3.14633,-6.15009 -7.57997,-12.44299 -12.15668,-18.16402 -4.57672,-5.72103 -9.29639,-10.86976 -13.26186,-14.80429 -3.96548,-3.93453 -7.17664,-6.6545 -10.35001,-10.44162 -3.17337,-3.78712 -6.30841,-8.6414 -9.4435,-13.04074 -3.13508,-4.39934 -6.27013,-8.34344 -10.92215,-12.33839 -4.65202,-3.99495 -10.82099,-8.04018 -18.05204,-12.23729 -7.23106,-4.19712 -15.52378,-8.54574 -24.37305,-11.02378 -8.84927,-2.47803 -18.25442,-3.08481 -27.20481,-3.08488 -8.9504,-6e-5 -17.44538,0.60673 -30.16263,3.22911 -12.71725,2.62238 -29.75872,7.2885 -44.82771,12.34518 -15.06899,5.05667 -28.21598,10.51773 -39.44198,16.78807 -11.22599,6.27034 -20.53001,13.34949 -28.01394,19.51868 -7.48393,6.16919 -13.14725,11.42798 -18.65914,18.50752 -5.5119,7.07954 -10.87182,15.97904 -15.27114,26.49715 -4.39931,10.5181 -7.83775,22.65378 -9.70867,29.73318 -1.87093,7.07939 -2.17432,9.102 -3.23608,10.77022 -1.06175,1.66822 -2.88211,2.98292 -4.60156,5.61269 z"
       style="fill:#244b24;fill-opacity:1;stroke:#1d3b1d;stroke-width:1px;stroke-linecap:butt;stroke-linejoin:miter;stroke-opacity:1" />
  </g>
  <g
     style="display:inline"
     inkscape:label="gbr 1"
     id="layer3"
     inkscape:groupmode="layer">
    <path
       inkscape:original-d="m 429.92779,391.31152 c 3.57658,-7.86528 7.15216,-15.73155 10.72674,-23.59883 2.86152,-5.57702 5.72193,-11.15481 8.58139,-16.73372 3.86271,-9.72477 7.72426,-19.45015 11.58488,-29.17673 1.43126,-8.00846 2.86147,-16.0176 4.2907,-24.0279"
       inkscape:path-effect="#path-effect892"
       id="path890"
       d="m 429.92779,391.31152 c 3.57538,-7.86583 7.15095,-15.7321 10.36901,-22.45428 3.21805,-6.72218 6.07846,-12.29998 9.43954,-19.95175 3.36108,-7.65177 7.22263,-17.37715 9.8686,-26.24453 2.64598,-8.86738 4.07618,-16.87652 5.50656,-24.88662"
       style="fill:none;fill-opacity:1;stroke:#1d3b1d;stroke-width:2.891;stroke-linecap:round;stroke-linejoin:round;stroke-miterlimit:4;stroke-dasharray:none;stroke-opacity:1" />
    <path
       inkscape:original-d="m 370.28711,406.32896 c 5.86495,-7.43621 11.7289,-14.87342 17.59185,-22.31162 3.14758,-5.14794 6.00798,-10.29668 9.01047,-15.44651 1.71731,-6.43517 3.43355,-12.87109 5.14883,-19.30814 2.14639,-7.57938 4.2917,-15.15946 6.43605,-22.74069 4.86388,-10.58293 9.72657,-21.16643 14.58836,-31.75115 2.57547,-5.29097 5.14984,-10.58272 7.72326,-15.87558 1.43126,-1.57228 2.86146,-3.14551 4.29069,-4.71976"
       inkscape:path-effect="#path-effect896"
       id="path894"
       d="m 370.28711,406.32896 c 5.86385,-7.43708 11.7278,-14.87429 16.17967,-21.19839 4.45186,-6.32411 7.41898,-11.4106 9.77888,-17.20291 2.3599,-5.79232 4.07614,-12.22823 6.00697,-19.23646 1.93083,-7.00823 4.07614,-14.58831 7.58025,-23.67049 3.50411,-9.08219 8.3668,-19.66569 12.08543,-27.60355 3.71863,-7.93786 6.293,-13.22961 8.29541,-16.66237 2.00242,-3.43275 3.43263,-5.00598 4.8629,-6.57928"
       style="fill:none;fill-opacity:1;stroke:#1d3b1d;stroke-width:2.891;stroke-linecap:round;stroke-linejoin:round;stroke-miterlimit:4;stroke-dasharray:none;stroke-opacity:1" />
    <path
       inkscape:original-d="m 326.95107,401.18012 c 4.2917,-8.58039 8.5824,-17.16178 12.87209,-25.74418 3.71968,-6.29214 7.43821,-12.58504 11.15581,-18.87906 3.2906,-7.86544 6.58007,-15.73156 9.8686,-23.59883 1.71732,-6.5782 3.43356,-13.15714 5.14884,-19.73721 4.57784,-8.86661 9.15449,-17.73387 13.73023,-26.60231 6.43717,-9.2957 12.87309,-18.59202 19.30813,-27.88953 3.57666,-5.43399 7.15216,-10.86877 10.72674,-16.30465"
       inkscape:path-effect="#path-effect900"
       id="path898"
       d="m 326.95107,401.18012 c 4.2905,-8.58099 8.58119,-17.16238 12.58589,-24.5997 4.0047,-7.43732 7.72323,-13.73022 11.22732,-20.80985 3.50408,-7.07963 6.79355,-14.94575 9.29649,-22.16839 2.50293,-7.22264 4.21918,-13.80158 7.36573,-21.52507 3.14655,-7.7235 7.7232,-16.59076 13.22968,-25.67291 5.50649,-9.08216 11.9424,-18.37848 16.94824,-25.74422 5.00585,-7.36574 8.58135,-12.80051 12.15709,-18.23563"
       style="fill:none;fill-opacity:1;stroke:#1d3b1d;stroke-width:2.891;stroke-linecap:round;stroke-linejoin:round;stroke-miterlimit:4;stroke-dasharray:none;stroke-opacity:1" />
    <path
       inkscape:original-d="m 278.4662,408.90338 c 4.57775,-6.29203 9.15449,-12.58505 13.73023,-18.87907 4.29178,-8.00846 8.58239,-16.0176 12.87209,-24.0279 3.8627,-7.29333 7.72425,-14.58737 11.58488,-21.88255 2.57547,-7.86544 5.14984,-15.73156 7.72325,-23.59883 1.57429,-4.71886 3.14752,-9.43853 4.71977,-14.1593 2.14639,-3.43163 4.2917,-6.86411 6.43605,-10.29767 3.14757,-5.86307 6.29402,-11.72691 9.43953,-17.59186 2.43244,-6.00609 4.86379,-12.01295 7.29418,-18.02092 3.14758,-6.72123 6.29402,-13.44319 9.43953,-20.16628 1.93186,-3.43162 3.86263,-6.86411 5.79244,-10.29767"
       inkscape:path-effect="#path-effect904"
       id="path902"
       d="m 278.4662,408.90338 c 4.57662,-6.29285 9.15336,-12.58587 13.58709,-19.73702 4.43373,-7.15115 8.72434,-15.16029 12.80054,-22.8121 4.0762,-7.65181 7.93775,-14.94585 11.1558,-22.52604 3.21804,-7.58019 5.79241,-15.44631 7.86626,-21.73938 2.07385,-6.29307 3.64707,-11.01274 5.50641,-15.08911 1.85935,-4.07636 4.00465,-7.50884 6.6506,-12.15711 2.64595,-4.64827 5.7924,-10.51211 8.58137,-16.44755 2.78896,-5.93545 5.22031,-11.94231 8.0093,-18.30695 2.78898,-6.36464 5.93543,-13.08659 8.47412,-18.164 2.53868,-5.07741 4.46946,-8.5099 6.40046,-11.94279"
       style="fill:none;fill-opacity:1;stroke:#1d3b1d;stroke-width:2.891;stroke-linecap:round;stroke-linejoin:round;stroke-miterlimit:4;stroke-dasharray:none;stroke-opacity:1" />
    <path
       inkscape:original-d="m 220.97087,410.19058 c 4.2917,-9.72457 8.58239,-19.45015 12.87209,-29.17673 5.43599,-11.72714 10.87076,-23.45481 16.30465,-35.18371 5.72204,-11.44109 11.44285,-22.88272 17.16278,-34.32557 5.14994,-8.00847 10.29867,-16.0176 15.44651,-24.02791 4.29178,-6.00609 8.58239,-12.01295 12.87209,-18.02092 1.8828,-2.84353 3.76452,-5.68794 5.64528,-8.53341"
       inkscape:path-effect="#path-effect908"
       id="path906"
       d="m 220.97087,410.19058 c 4.29049,-9.7251 8.58119,-19.45068 13.44403,-30.17755 4.86285,-10.72688 10.29762,-22.45455 15.87559,-34.03956 5.57796,-11.58502 11.29878,-23.02665 16.73373,-32.75238 5.43495,-9.72574 10.58368,-17.73487 15.3035,-24.7431 4.71982,-7.00823 9.01044,-13.01509 12.09668,-17.44082 3.08623,-4.42572 4.96795,-7.27013 6.84987,-10.11484"
       style="fill:none;fill-opacity:1;stroke:#1d3b1d;stroke-width:2.891;stroke-linecap:round;stroke-linejoin:round;stroke-miterlimit:4;stroke-dasharray:none;stroke-opacity:1" />
    <path
       inkscape:original-d="m 172.91507,397.3185 c 5.00681,-9.00947 10.01262,-18.01993 15.01744,-27.03139 6.5802,-11.15504 13.15913,-22.31062 19.7372,-33.46744 4.72086,-8.58056 9.44053,-17.16178 14.1593,-25.74417 4.14875,-7.57939 8.29635,-15.15947 12.44302,-22.7407 4.14875,-5.43399 8.29634,-10.86876 12.44302,-16.30464 1.43126,-1.57229 2.86146,-3.14551 4.29069,-4.71977"
       inkscape:path-effect="#path-effect912"
       id="path910"
       d="m 172.91507,397.3185 c 5.00563,-9.01013 10.01144,-18.02059 15.80395,-28.10386 5.79251,-10.08327 12.37144,-21.23885 18.0209,-31.10752 5.64946,-9.86866 10.36913,-18.44988 14.80289,-26.53077 4.43377,-8.08089 8.58136,-15.66097 12.72911,-22.16868 4.14775,-6.50771 8.29534,-11.94248 11.08434,-15.44661 2.789,-3.50414 4.2192,-5.07736 5.64948,-6.65067"
       style="fill:none;fill-opacity:1;stroke:#1d3b1d;stroke-width:2.891;stroke-linecap:round;stroke-linejoin:round;stroke-miterlimit:4;stroke-dasharray:none;stroke-opacity:1" />
    <path
       inkscape:original-d="m 227.83598,419.63012 c -4.43272,-4.2897 -8.86644,-8.5804 -13.30116,-12.87209 -7.86543,-6.43518 -15.73155,-12.87109 -23.59883,-19.30814 -6.43517,-5.29096 -12.58504,-10.58271 -18.87906,-15.87557 -3.00255,-2.7165 -6.00598,-5.43389 -9.01046,-8.15233"
       inkscape:path-effect="#path-effect916"
       id="path914"
       d="m 227.83598,419.63012 c -4.43271,-4.28971 -8.86643,-8.58041 -15.01647,-13.94389 -6.15003,-5.36348 -14.01615,-11.7994 -21.13776,-17.69862 -7.12161,-5.89923 -13.33072,-11.12053 -17.97902,-15.12518 -4.6483,-4.00466 -7.65173,-6.72205 -10.65626,-9.44044"
       style="fill:none;fill-opacity:1;stroke:#1d3b1d;stroke-width:2.891;stroke-linecap:round;stroke-linejoin:round;stroke-miterlimit:4;stroke-dasharray:none;stroke-opacity:1" />
    <path
       inkscape:original-d="m 294.77085,410.61965 c -6.00598,-5.5769 -12.01295,-11.15481 -18.02093,-16.73371 -6.14912,-5.14794 -12.29899,-10.29667 -18.44999,-15.44651 -5.29097,-4.86189 -10.58272,-9.72458 -15.87558,-14.58837 -6.29215,-4.86188 -12.58504,-9.72458 -18.87906,-14.58837 -5.29097,-5.72004 -10.58272,-11.44085 -15.87558,-17.16278 -4.14676,-5.72004 -8.29435,-11.44086 -12.44302,-17.16279 -3.2886,-1.28623 -6.57807,-2.57342 -9.8686,-3.86162 -2.43044,-0.28506 -4.57574,-0.5711 -6.86512,-0.85814"
       inkscape:path-effect="#path-effect920"
       id="path918"
       d="m 294.77085,410.61965 c -6.00594,-5.57694 -12.01292,-11.15484 -18.09144,-16.5183 -6.07853,-5.36345 -12.2284,-10.51218 -17.9494,-15.51802 -5.72101,-5.00583 -11.01276,-9.86852 -16.80523,-14.73141 -5.79246,-4.86289 -12.08536,-9.72558 -17.87793,-15.01741 -5.79257,-5.29183 -11.08432,-11.01263 -15.8042,-16.73357 -4.71988,-5.72094 -8.86747,-11.44176 -12.58591,-14.94617 -3.71844,-3.50441 -7.00792,-4.79159 -9.86735,-5.58719 -2.85943,-0.7956 -5.00693,-1.06403 -7.29642,-1.35022"
       style="fill:none;fill-opacity:1;stroke:#1d3b1d;stroke-width:2.891;stroke-linecap:round;stroke-linejoin:round;stroke-miterlimit:4;stroke-dasharray:none;stroke-opacity:1" />
    <path
       inkscape:original-d="m 336.3906,396.88943 c -5.43388,-4.43272 -10.86876,-8.86644 -16.30464,-13.30116 -7.29333,-6.86426 -14.58737,-13.72923 -21.88255,-20.59535 -5.86307,-5.00491 -11.72691,-10.01062 -17.59186,-15.01743 -5.72004,-5.57702 -11.44086,-11.15482 -17.16279,-16.73372 -3.8607,-4.57584 -7.72225,-9.15249 -11.58488,-13.73023 -5.86307,-5.14794 -11.7269,-10.29667 -17.59185,-15.44651 -3.71768,-5.00491 -7.43621,-10.01062 -11.15581,-15.01743 -4.00373,-4.57584 -8.0083,-9.15249 -12.01395,-13.73023"
       inkscape:path-effect="#path-effect924"
       id="path922"
       d="m 336.3906,396.88943 c -5.43379,-4.43283 -10.86867,-8.86655 -17.23331,-14.516 -6.36463,-5.64945 -13.65867,-12.51442 -20.23777,-18.44996 -6.57911,-5.93554 -12.44295,-10.94126 -18.23547,-16.23313 -5.79253,-5.29188 -11.51335,-10.86968 -16.30472,-15.947 -4.79137,-5.07733 -8.65291,-9.65398 -13.51569,-14.51689 -4.86277,-4.86292 -10.7266,-10.01165 -15.51803,-15.08893 -4.79142,-5.07728 -8.50995,-10.08299 -12.37157,-14.87434 -3.86162,-4.79136 -7.86619,-9.36801 -11.87177,-13.94581"
       style="fill:none;fill-opacity:1;stroke:#1d3b1d;stroke-width:2.891;stroke-linecap:round;stroke-linejoin:round;stroke-miterlimit:4;stroke-dasharray:none;stroke-opacity:1" />
    <path
       inkscape:original-d="m 401.18012,391.74059 c -7.86527,-6.86411 -15.73155,-13.72923 -23.59883,-20.59534 -9.72477,-8.15149 -19.45016,-16.30365 -29.17673,-24.45697 -8.7236,-7.43636 -17.44784,-14.87342 -26.17325,-22.31163 -8.15149,-6.57819 -16.30365,-13.15713 -24.45697,-19.7372 -6.0061,-4.28978 -12.01295,-8.58039 -18.02093,-12.87209 -6.29215,-2.85952 -12.58504,-5.71993 -18.87906,-8.58139 -5.29097,-3.43163 -10.58272,-6.86412 -15.87558,-10.29767 -3.43163,-3.00255 -6.86411,-6.00598 -10.29767,-9.01047"
       inkscape:path-effect="#path-effect928"
       id="path926"
       d="m 401.18012,391.74059 c -7.86521,-6.86418 -15.73149,-13.7293 -24.52751,-21.23811 -8.79601,-7.50881 -18.5214,-15.66098 -27.74649,-23.45581 -9.22508,-7.79484 -17.94932,-15.2319 -26.38776,-22.24012 -8.43844,-7.00821 -16.5906,-13.58715 -23.67029,-19.02211 -7.07969,-5.43496 -13.08654,-9.72557 -19.23657,-13.30131 -6.15003,-3.57574 -12.44293,-6.43615 -18.23544,-9.58259 -5.79252,-3.14645 -11.08427,-6.57893 -15.44656,-9.7969 -4.3623,-3.21796 -7.79478,-6.22139 -11.2284,-9.22581"
       style="fill:none;fill-opacity:1;stroke:#1d3b1d;stroke-width:2.891;stroke-linecap:round;stroke-linejoin:round;stroke-miterlimit:4;stroke-dasharray:none;stroke-opacity:1" />
    <path
       inkscape:original-d="m 459.10452,378.8685 c -9.15248,-8.0083 -18.30597,-16.0176 -27.46045,-24.0279 -8.72359,-7.57938 -17.44784,-15.15946 -26.17325,-22.74069 -6.43518,-7.43636 -12.87109,-14.87342 -19.30814,-22.31162 -6.5782,-6.29215 -13.15713,-12.58505 -19.7372,-18.87907 -7.43636,-4.86188 -14.87341,-9.72458 -22.31162,-14.58837 -9.15267,-5.43399 -18.30597,-10.86876 -27.46046,-16.30464 -3.14557,-1.28624 -6.29202,-2.57342 -9.43953,-3.86163"
       inkscape:path-effect="#path-effect932"
       id="path930"
       d="m 459.10452,378.8685 c -9.15242,-8.00837 -18.30591,-16.01767 -27.24494,-23.81251 -8.93903,-7.79485 -17.66328,-15.37493 -25.24365,-22.88365 -7.58037,-7.50872 -14.01628,-14.94578 -20.52386,-21.811 -6.50757,-6.86522 -13.0865,-13.15812 -20.09464,-18.73618 -7.00815,-5.57807 -14.4452,-10.44076 -22.74063,-15.58968 -8.29543,-5.14892 -17.44873,-10.58369 -23.59875,-13.94485 -6.15001,-3.36116 -9.29646,-4.64835 -12.44418,-5.93605"
       style="fill:none;fill-opacity:1;stroke:#1d3b1d;stroke-width:2.891;stroke-linecap:round;stroke-linejoin:round;stroke-miterlimit:4;stroke-dasharray:none;stroke-opacity:1" />
    <path
       inkscape:original-d="m 485.27777,343.68479 c -8.0083,-6.72109 -16.0176,-13.15714 -24.0279,-19.7372 -8.43754,-8.15149 -16.87574,-16.30365 -25.31511,-24.45697 -7.7224,-6.43518 -15.4455,-12.87109 -23.16976,-19.30814 -3.43162,-4.86189 -6.86411,-9.72458 -10.29767,-14.58837 -4.43281,-4.28978 -8.86644,-8.58039 -13.30116,-12.87209 -6.72122,-3.2886 -13.44318,-6.57806 -20.16627,-9.8686 -5.29097,-2.85952 -10.58272,-5.71993 -15.87558,-8.58139"
       inkscape:path-effect="#path-effect936"
       id="path934"
       d="m 485.27777,343.68479 c -8.07836,-6.6358 -16.01752,-13.15724 -24.24147,-20.52297 -8.22395,-7.36574 -16.66215,-15.5179 -24.74301,-22.81218 -8.08085,-7.29429 -15.80395,-13.73021 -21.38203,-19.37956 -5.57808,-5.64935 -9.01057,-10.51204 -12.94365,-15.0889 -3.93307,-4.57687 -8.3667,-8.86748 -13.94458,-12.65782 -5.57788,-3.79035 -12.29984,-7.07982 -18.30687,-10.15482 -6.00704,-3.075 -11.29879,-5.9354 -16.59184,-8.79651"
       style="fill:none;fill-opacity:1;stroke:#1d3b1d;stroke-width:2.891;stroke-linecap:round;stroke-linejoin:round;stroke-miterlimit:4;stroke-dasharray:none;stroke-opacity:1" />
  </g>
  <g
     style="display:inline"
     inkscape:label="gbr 2"
     id="layer5"
     inkscape:groupmode="layer">
    <path
       style="display:inline;fill:#e6e6e6;stroke:none;stroke-width:1px;stroke-linecap:butt;stroke-linejoin:miter;stroke-opacity:1"
       d="m 240.89806,270.63107 c 1.31472,-9.80987 2.62933,-19.61889 4.65198,-29.42895 2.02264,-9.81006 4.75317,-19.61973 8.64682,-29.37928 3.89366,-9.75956 8.95019,-19.4681 14.71485,-28.72193 5.76467,-9.25383 12.23703,-18.0522 19.46815,-26.64863 7.23112,-8.59643 15.22044,-16.99028 22.40104,-23.41233 7.1806,-6.42206 13.55183,-10.87181 19.721,-15.06886 6.16917,-4.19705 12.13587,-8.14115 17.34434,-11.22574 5.20846,-3.08459 9.65821,-5.30947 15.09961,-7.979905 5.4414,-2.670437 11.95344,-5.824706 19.63546,-9.201802 7.68203,-3.377096 16.57314,-6.996025 24.59441,-10.450326 8.02127,-3.4543 15.17229,-6.743769 22.82414,-10.033337 7.65186,-3.289567 15.80402,-6.579035 23.52745,-9.08194 7.72344,-2.502905 15.01747,-4.219151 22.02572,-5.649379 7.00825,-1.430229 13.7302,-2.574392 20.81,-3.289461 7.0798,-0.715069 14.5159,-1.001073 21.95311,-1.28712 -4.86279,3.43256 -9.72538,6.864981 -16.30447,10.941167 -6.57909,4.076185 -14.87427,8.795858 -23.38425,13.73021 -8.50998,4.934353 -17.23422,10.083087 -24.0279,14.230801 -6.79368,4.147714 -11.65637,7.294161 -17.87799,11.584922 -6.22161,4.29077 -13.80169,9.72554 -19.80877,14.37387 -6.00707,4.64833 -10.44078,8.50994 -14.8745,12.37157 12.15697,-6.72209 24.31429,-13.44438 35.61338,-18.37871 11.29909,-4.93434 21.73957,-8.08078 29.17677,-10.512199 7.43719,-2.431416 11.87083,-4.147662 19.66581,-6.293016 7.79497,-2.145353 18.95056,-4.719718 29.46288,-7.07962 10.51231,-2.359901 20.38071,-4.505207 32.10359,-6.078041 11.72289,-1.572833 25.3203,-2.574748 35.7612,-2.217001 10.44089,0.357747 17.73376,2.073717 25.02794,3.789997 -7.72325,4.00465 -15.44613,8.009105 -25.96753,12.562007 -10.52141,4.552902 -24.09005,9.749403 -36.31863,14.254673 -12.22857,4.50527 -23.24114,8.36682 -34.61163,12.58605 -11.37049,4.21923 -23.09816,8.79588 -34.61176,14.51689 -11.5136,5.72102 -22.8125,12.58617 -34.11133,19.45128 12.44302,-4.00465 24.88665,-8.0095 34.89832,-11.44209 10.01167,-3.43259 17.59174,-6.29299 25.60132,-8.0092 8.00958,-1.71622 16.44778,-2.2883 26.45955,-2.57431 10.01178,-0.28602 21.59643,-0.28602 31.67971,0.35768 10.08329,0.6437 18.66339,1.93072 27.24478,3.21793 -14.87442,3.28953 -29.74809,6.5789 -42.40582,9.93996 -12.65773,3.36107 -23.09821,6.79355 -34.32565,10.44068 -11.22744,3.64714 -23.24115,7.50869 -34.89765,11.22733 -11.6565,3.71864 -22.95573,7.29434 -34.25456,10.86992 20.3093,-5.43488 40.61927,-10.86994 55.2078,-14.30249 14.58852,-3.43254 23.45579,-4.86275 32.39489,-5.79236 8.93911,-0.92961 17.94844,-1.35863 26.9589,-1.7877 -7.00814,3.86163 -14.01593,7.72306 -22.59733,11.65623 -8.58141,3.93317 -18.73585,7.93775 -28.60455,11.79941 -9.86869,3.86166 -19.45106,7.58019 -27.31735,10.44068 -7.8663,2.86049 -14.01679,4.86297 -20.16679,6.8653 0,0 61.35696,-6.43605 61.35696,-6.43605 -15.44651,4.14767 -30.89233,8.29516 -42.33417,10.86963 -11.44185,2.57446 -18.87891,3.5756 -26.88833,4.86281 -8.00941,1.28721 -16.59064,2.86044 -25.88734,5.36335 -9.29671,2.50291 -19.30814,5.9354 -31.53677,10.08313 -12.22862,4.14772 -26.67367,9.01041 -39.47445,14.08778 -12.80077,5.07738 -23.95636,10.36913 -32.52663,14.66787 -8.57027,4.29873 -14.555,7.60438 -20.53952,10.90991 -2.93285,0.10113 -5.86473,0.20223 -9.96158,0.60017 -4.09685,0.39793 -9.55618,1.11897 -14.61288,1.87746 -5.0567,0.75849 -9.80984,1.56754 -14.96769,2.5283 -5.15784,0.96077 -10.72002,2.07321 -14.25976,2.88225 -3.53975,0.80904 -5.05731,1.3149 -6.5743,1.82056 z"
       id="path878"
       inkscape:original-d="m 240.89806,270.63107 c 0,0 2.63045,-19.61874 3.94417,-29.42961 2.73164,-9.80907 5.46217,-19.61874 8.19175,-29.42962 5.05774,-9.70793 10.11427,-19.41647 15.1699,-29.12621 6.47363,-8.79772 12.94599,-17.59609 19.41748,-26.39563 7.99064,-8.39318 15.97996,-16.78703 23.96845,-25.18204 6.37248,-4.44893 12.74371,-8.89868 19.11407,-13.34951 5.96795,-3.94326 11.93466,-7.88735 17.90049,-11.83253 4.45093,-2.22396 8.90068,-4.44884 13.34951,-6.67475 6.47363,-3.03304 12.94599,-6.26923 19.41748,-9.40534 8.89247,-3.61808 17.78358,-7.23701 26.67388,-10.85701 7.1523,-3.2886 14.30332,-6.57807 21.45348,-9.8686 8.15349,-3.2886 16.30565,-6.57807 24.45697,-9.8686 7.29533,-1.71532 14.58937,-3.43156 21.88255,-5.14884 6.72323,-1.14321 13.44518,-2.28737 20.16627,-3.43256 7.43836,-0.28505 22.31163,-0.85814 22.31163,-0.85814 0,0 -9.72458,6.86612 -14.58837,10.29768 -8.29451,4.72086 -16.5897,9.44053 -24.88604,14.15929 -8.72359,5.14994 -17.44783,10.29868 -26.17325,15.44651 -4.86189,3.14757 -9.72458,6.29402 -14.58837,9.43953 -7.57938,5.43599 -15.15946,10.87076 -22.74069,16.30465 -4.43281,3.8627 -13.30116,11.58488 -13.30116,11.58488 0,0 24.31495,-13.44319 36.47092,-20.16628 10.44191,-3.14557 20.88239,-6.29202 31.32209,-9.43953 4.4348,-1.71531 8.86844,-3.43155 13.30115,-5.14883 11.15704,-2.57347 22.31263,-5.14784 33.46744,-7.72325 9.8698,-2.1444 19.7382,-4.2897 29.6058,-6.43605 13.58848,-0.85716 27.17541,-2.00132 40.76162,-3.00349 7.29533,1.71732 21.88255,5.14884 21.88255,5.14884 0,0 -15.44551,8.0103 -23.16976,12.01395 -13.30042,5.14994 -26.88736,10.29867 -40.33255,15.4465 -11.012,3.86271 -22.02457,7.72426 -33.03836,11.58488 -11.72714,4.57784 -23.45481,9.15449 -35.18371,13.73023 -11.29806,6.86625 -33.8965,20.59534 -33.8965,20.59534 0,0 24.88704,-8.0083 37.32906,-12.01395 7.58138,-2.85952 15.16146,-5.71992 22.74069,-8.58139 8.43954,-0.5711 16.87774,-1.14318 25.31511,-1.71628 11.58611,0.001 23.17076,0.001 34.75464,0 8.58256,1.28824 25.74418,3.86163 25.74418,3.86163 0,0 -29.74783,6.58007 -44.62325,9.8686 -10.4399,3.43363 -20.88038,6.86612 -31.32208,10.29767 -12.01319,3.86271 -24.0269,7.72426 -36.04185,11.58488 -11.29806,3.57666 -33.8965,10.72674 -33.8965,10.72674 0,0 40.61959,-10.86876 60.92789,-16.30464 8.86861,-1.42926 17.73588,-2.85947 26.60232,-4.2907 9.01164,-0.42808 27.03138,-1.28721 27.03138,-1.28721 0,0 -14.01527,7.72426 -21.02441,11.58488 -10.15385,4.00573 -20.3083,8.0103 -30.46394,12.01395 -9.58175,3.71968 -19.16412,7.43821 -28.74767,11.15581 -6.14912,2.00337 -18.45,6.00698 -18.45,6.00698 0,0 61.35696,-6.43605 61.35696,-6.43605 0,0 -30.89201,8.29635 -46.33952,12.44302 -7.43635,1.00219 -14.87341,2.00333 -22.31162,3.00349 -8.58056,1.57429 -17.16179,3.14751 -25.74418,4.71977 -10.01082,3.43362 -20.02225,6.86611 -30.03487,10.29767 -14.44464,4.86389 -28.88969,9.72658 -43.33604,14.58837 -11.15503,5.29296 -22.31062,10.58472 -33.46743,15.87557 -5.98364,3.3066 -17.95355,9.91659 -17.95355,9.91659 0,0 -5.86469,0.20327 -8.79854,0.3034 -5.25801,0.70894 -10.71907,1.41686 -16.0801,2.12378 -4.75233,0.81008 -9.50547,1.61913 -14.25971,2.42719 -5.56141,1.11348 -11.12359,2.22592 -16.68689,3.33738 -1.51602,0.50667 -4.55097,1.51699 -4.55097,1.51699 z"
       inkscape:path-effect="#path-effect983" />
  </g>
</svg>
